<svg width="2875" height="2000" viewBox="0 0 2875 2000" fill="none" xmlns="http://www.w3.org/2000/svg">
<g clip-path="url(#clip0_51_2)">
<path d="M307.433 1809.9C202.209 1751.25 166.569 1547.73 250.6 1298.47C312.683 1114.31 216.743 950.662 223.879 734.712C244.863 99.659 1468.52 -17.844 2141.95 308.115C2761.37 607.933 2797.27 1462.4 2551.3 1809.9C2140.77 1809.9 307.433 1809.9 307.433 1809.9Z" fill="#FFE1C7"/>
<path d="M198.032 1808.8L2634.95 1811.07C2640.81 1811.07 2645.55 1816.26 2645.55 1822.65C2645.55 1829.04 2640.8 1834.23 2634.93 1834.22L198.015 1831.96C192.157 1831.95 187.41 1826.77 187.41 1820.38C187.411 1813.98 192.167 1808.8 198.032 1808.8Z" fill="#3C8F7C"/>
<path d="M1651.66 835.148C1678.66 839.524 1677.06 843.934 1680.54 844.4C1684.64 844.953 1733.39 820.474 1733.39 820.474C1733.39 820.474 1877.53 749.327 1885.18 745.2L1989.23 614.295L2069.41 651.278C2069.41 651.278 1952.4 790.451 1945 796.584C1937.59 802.714 1730.9 875.194 1712.93 882.184C1712.93 882.184 1694.81 898.748 1683.08 908.755C1671.35 918.759 1655.67 922.725 1651.93 925.004C1651.37 925.341 1638.44 932.169 1620.17 936.144C1604.41 939.571 1617.54 928.872 1617.54 928.872C1617.54 928.872 1645.4 917.108 1644.03 914.982C1642.98 913.343 1628.16 920.7 1610.78 924.677C1606.31 925.7 1601.9 926.695 1597.84 927.571C1587.17 929.879 1582.48 923.775 1593.2 919.522C1596.99 918.021 1603.34 915.687 1608.12 914.69C1613.29 913.611 1617.63 910.898 1621.81 909.305C1630.12 906.146 1636.22 903.95 1635.89 903.665C1635.46 903.293 1636.63 901.459 1631.85 902.391C1626.1 903.513 1614.5 908.687 1605.9 909.663C1601.02 910.213 1590.92 912.006 1590.92 912.006C1590.92 912.006 1573.03 913.717 1572.91 911.209C1572.64 905.733 1583.65 902.67 1590.42 902.81C1594.68 900.638 1605.37 899.064 1605.37 899.064C1605.37 899.064 1626.11 890.877 1624.91 887.807C1624.43 886.581 1611.87 888.466 1598.55 889.378C1584.46 890.344 1574.26 890.339 1573.51 887.614C1572.32 883.284 1583.53 881.645 1583.53 881.645C1583.53 881.645 1593.41 880.205 1596.65 879.466C1600.44 878.602 1611.58 875.112 1611.58 875.112C1611.58 875.112 1649.73 861.099 1648.35 858.285C1646.97 855.469 1640.67 849.575 1637.98 849.591C1635.29 849.606 1630.48 852.29 1627.79 852.304C1625.1 852.321 1619.32 851.802 1618.91 848.415C1618.51 845.032 1633.45 838.02 1633.45 838.02C1633.45 838.02 1643.86 833.886 1651.66 835.148Z" fill="#F8A492"/>
<path d="M1916.82 695.371C1916.82 695.371 1942.78 718.954 1953.58 726.716C1962.55 733.17 2006.29 754.236 2006.29 754.236C2006.29 754.236 2049.8 687.602 2068.83 654.189C2091.92 613.647 2107.9 553.362 2102.44 551.728C2087.13 547.14 2066.06 544.336 2046.6 553.266C1979.27 584.168 1916.82 695.371 1916.82 695.371Z" fill="#355389"/>
<path d="M1676.87 869.971C1665.32 871.793 1653.51 869.599 1648.39 859.023C1647.24 871.566 1666.25 877.789 1676.87 869.971Z" fill="#FE875E"/>
<path d="M2342.89 1717.96C2342.89 1717.96 2345.77 1768.98 2345.79 1769.08C2346.85 1775.56 2351.01 1791.56 2351.01 1797.45C2351.01 1819.57 2252.88 1778.67 2274.87 1768.87C2276.86 1767.98 2287.29 1761.27 2287.94 1753.74C2288.95 1742.14 2291.51 1718.68 2291.51 1718.68L2342.89 1717.96Z" fill="#F7A491"/>
<path d="M2273.93 1769.09C2273.93 1769.09 2296.97 1775.86 2308.77 1777.55C2320.57 1779.24 2336.13 1764.99 2344.48 1768.84C2353.66 1773.07 2353.3 1811.2 2353.3 1811.2C2353.3 1811.2 2229.74 1822.05 2195 1810.82C2181.24 1806.37 2226.83 1784.85 2273.93 1769.09Z" fill="#F7CC7F"/>
<path d="M2506.32 1719.47C2506.32 1719.47 2509.2 1770.48 2509.21 1770.59C2510.27 1777.06 2514.44 1793.07 2514.44 1798.95C2514.44 1821.07 2416.3 1780.18 2438.3 1770.38C2440.29 1769.49 2453.81 1757.77 2454.47 1750.24C2455.47 1738.64 2454.94 1720.18 2454.94 1720.18L2506.32 1719.47Z" fill="#F7A491"/>
<path d="M2438.54 1770.16C2438.54 1770.16 2461.58 1776.93 2473.38 1778.62C2485.18 1780.31 2500.74 1766.07 2509.09 1769.92C2518.28 1774.15 2518.64 1812.27 2518.64 1812.27C2518.64 1812.27 2395.96 1817.31 2359.61 1811.9C2345.31 1809.77 2391.44 1785.92 2438.54 1770.16Z" fill="#F7CC7F"/>
<path d="M2477.21 903.775C2477.21 903.775 2493.84 989.833 2487.06 1055.09C2480.29 1120.34 2479.76 1352.14 2479.76 1352.14L2511.02 1722.9L2444.25 1724.45C2444.25 1724.45 2371.48 1353.75 2372.83 1363.27C2374.19 1372.78 2348.44 1102.25 2348.44 1102.25L2435.19 895.618L2477.21 903.775Z" fill="#355389"/>
<path d="M2453.95 848.198C2453.95 848.198 2529.29 927.558 2501.26 1014.24C2490 1049.06 2385 1381.7 2383.64 1408.89C2382.29 1436.07 2348.13 1736.59 2348.13 1736.59L2276.77 1734.44L2261.33 1400.33L2281.73 950.146L2325.04 874.222L2453.95 848.198Z" fill="#466EB6"/>
<path d="M1996.5 589.891C2021.17 562.364 2074.87 523.192 2074.87 523.192C2074.87 523.192 2106.86 495.868 2119.9 491.372C2139.1 484.754 2171.97 467.099 2219.53 539.168C2253.56 590.743 2468.3 857.793 2503.55 866.783L2273.36 976.909C2267.05 924.305 2153.28 824.942 2136.91 806.4C2100.32 764.959 1973.14 615.953 1996.5 589.891Z" fill="#F47458"/>
<path d="M2007.23 478.001L2078.94 519.979C2078.94 519.979 2080.95 581.187 2057.51 597.085C2037.84 610.426 2022.87 578.409 2022.87 578.409C2022.87 578.409 1996.21 541.46 1975.96 529.95C1955.7 518.439 2007.23 478.001 2007.23 478.001Z" fill="#F7A491"/>
<path d="M2019.26 504.941C2016.56 517.711 2010.32 536.172 2000.65 551.38C1992.75 542.834 1983.87 534.446 1975.96 529.95C1966.61 524.637 1972.56 513.166 1981.67 502.351C1994.53 488.955 2007.23 478.001 2007.23 478.001L2021.01 486.069C2021.9 491.297 2020.16 500.69 2019.26 504.941Z" fill="#F47458"/>
<path d="M1969.88 372.795C1971.09 371.303 2030.03 444.678 2022.76 479.093C2015.49 513.511 1979.86 544.917 1955.09 536.28C1927.7 526.73 1876.76 440.351 1895.03 398.41C1913.3 356.47 1969.88 372.795 1969.88 372.795Z" fill="#F7A491"/>
<path d="M1905.34 349.651C1931.04 335.359 1972.95 331.255 2004.27 347.654C2042.77 367.814 2051.54 418.54 2039.49 449.479C2027.44 480.422 2041.24 497.913 2041.24 497.913L2020.81 485.982C2020.81 485.982 2008.88 467.36 2007.32 452.518C2005.77 437.674 1984.12 440.303 1973.54 433.572C1965.41 428.389 1955.02 411.545 1941.85 402.805C1941.85 402.805 1908.69 398.736 1892.39 407.888C1864.59 423.488 1868.54 370.126 1905.34 349.651Z" fill="#13375B"/>
<path d="M1990.11 445.939C1989.92 456.947 1995.12 465.957 2001.73 466.065C2008.34 466.173 2013.85 457.337 2014.04 446.332C2014.23 435.324 2009.03 426.314 2002.42 426.205C1995.81 426.096 1990.3 434.931 1990.11 445.939Z" fill="#F7A491"/>
<path d="M1587.04 893.931H1486.28C1480.87 893.931 1476.49 889.545 1476.49 884.136C1476.49 878.726 1480.87 874.34 1486.28 874.34H1587.04C1592.45 874.34 1596.83 878.726 1596.83 884.136C1596.83 889.545 1592.45 893.931 1587.04 893.931Z" fill="#5E5E5E"/>
<path d="M1587.04 1002.87H1486.28C1480.87 1002.87 1476.49 998.486 1476.49 993.077C1476.49 987.667 1480.87 983.282 1486.28 983.282H1587.04C1592.45 983.282 1596.83 987.667 1596.83 993.077C1596.83 998.486 1592.45 1002.87 1587.04 1002.87Z" fill="#5E5E5E"/>
<path d="M1601.65 1027.48H1679.06V849.734H1601.65V1027.48Z" fill="#F47458"/>
<path d="M1679.06 1027.48L1748.58 963.691V913.521L1679.06 849.733V1027.48Z" fill="#B75742"/>
<path d="M1849.72 953.686L1748.58 962.975V913.521L1849.72 922.81C1852.11 923.029 1853.93 925.033 1853.93 927.432V949.065C1853.93 951.464 1852.11 953.467 1849.72 953.686Z" fill="#F7CC7F"/>
<path d="M2874.89 927.688H1853.93V949.159H2874.89V927.688Z" fill="#EBB960"/>
<path d="M1831 955.406V921.09L1841.27 922.035V954.461L1831 955.406Z" fill="#EBB960"/>
<path d="M1807.82 918.962L1818.1 919.906V956.59L1807.82 957.533V918.962Z" fill="#EBB960"/>
<path d="M1784.65 916.834L1794.92 917.778V958.718L1784.65 959.662V916.834Z" fill="#EBB960"/>
<path d="M1761.48 914.706L1771.75 915.649V960.846L1761.48 961.789V914.706Z" fill="#EBB960"/>
<path d="M1588.39 1035.05L1601.65 1027.48V849.733L1588.39 842.163V1035.05Z" fill="#B75742"/>
<path d="M1562.59 1035.05H1588.39V842.162H1562.59V1035.05Z" fill="#F47458"/>
<path d="M1628.77 976.831C1625.99 976.831 1623.75 974.585 1623.75 971.814V905.398C1623.75 902.627 1625.99 900.381 1628.77 900.381C1631.54 900.381 1633.78 902.627 1633.78 905.398V971.814C1633.78 974.585 1631.54 976.831 1628.77 976.831Z" fill="#D95A3F"/>
<path d="M1648.83 976.831C1646.06 976.831 1643.82 974.585 1643.82 971.814V905.398C1643.82 902.627 1646.06 900.381 1648.83 900.381C1651.61 900.381 1653.85 902.627 1653.85 905.398V971.814C1653.85 974.585 1651.6 976.831 1648.83 976.831Z" fill="#D95A3F"/>
<path d="M1668.9 976.831C1666.13 976.831 1663.88 974.585 1663.88 971.814V905.398C1663.88 902.627 1666.13 900.381 1668.9 900.381C1671.67 900.381 1673.92 902.627 1673.92 905.398V971.814C1673.92 974.585 1671.67 976.831 1668.9 976.831Z" fill="#D95A3F"/>
<path d="M1851.36 968.541C1859.18 957.125 1862.59 940.641 1873.4 928.07C1877.03 923.846 1882.8 919.089 1889.38 914.346C1941.38 883.928 2076.81 805.514 2082.08 799.427C2088.33 792.216 2180.77 638.63 2180.77 638.63L2097.75 619.819L2016.61 763.088C2009.84 768.465 1881.05 863.652 1881.05 863.652C1881.05 863.652 1855.44 883.663 1841.44 893.027C1834.37 897.155 1827.51 899.826 1821.5 901.914C1813.95 904.543 1799.55 911.715 1796.64 914.276C1793.26 917.255 1786.49 923.619 1782.46 927.505C1778.44 931.388 1773.56 935.778 1771.67 938.088C1770.53 939.496 1766.97 941.436 1764.36 942.739C1760.46 944.679 1760.97 950.44 1765.15 951.626C1769.1 952.74 1774.42 950.269 1777.72 948.714C1787.04 944.334 1798.44 932.504 1799.04 933.95C1799.64 935.396 1788.08 960.743 1786.94 963.727C1785.81 966.709 1772.52 996.242 1771.84 1002.83C1771.16 1009.41 1775.13 1010.93 1778.08 1008.52C1780.62 1006.45 1801.98 967.019 1801.98 967.019C1801.98 967.019 1804.71 961.994 1805.78 964.869C1806.84 967.743 1787.52 1003.59 1785.63 1009.47C1783.74 1015.35 1785.24 1020.18 1790.69 1018.11C1797.3 1015.61 1815.57 976.074 1815.57 976.074C1815.57 976.074 1817.95 971.157 1819.57 972.868C1821.2 974.582 1804.25 1004.8 1804.06 1008.28C1803.87 1011.77 1807.01 1015.2 1811.58 1012.29C1816.97 1008.86 1832.98 973.433 1832.98 973.433C1832.98 973.433 1834.96 971.087 1835.58 972.736C1836.2 974.382 1823.59 1001.18 1824.53 1005.1C1825.32 1008.39 1828.27 1007.73 1828.27 1007.73C1834.88 1007.71 1843.54 979.957 1851.36 968.541Z" fill="#F8A492"/>
<path d="M2158.04 719.758C2158.04 719.758 2131 711.155 2113.66 703.215C2102.04 697.898 2051.38 672.686 2051.38 672.686C2051.38 672.686 2073.22 580.545 2087.99 547.417C2142.17 425.831 2203.76 509.683 2212.11 529.229C2230.8 572.947 2158.04 719.758 2158.04 719.758Z" fill="#355389"/>
<path d="M615.934 1758.34C614.41 1747.39 617.833 1728.55 626.383 1699.08C609.452 1699.12 595.216 1691.6 577.912 1691.86C573.186 1719.58 565.866 1765.09 565.866 1765.09L565.082 1801.07L685.567 1801.98C685.567 1801.98 684.564 1802.5 649.042 1779.99C646.417 1778.32 617.407 1768.93 615.934 1758.34Z" fill="#F7A491"/>
<path d="M464.421 1759.77C462.896 1748.82 460.305 1735.1 464.104 1698.58C447.173 1698.62 431.06 1695.43 413.757 1695.7C413.757 1724.21 414.353 1766.52 414.353 1766.52L413.569 1802.49L534.055 1803.4C534.055 1803.4 533.052 1803.92 497.53 1781.41C494.904 1779.75 465.894 1770.35 464.421 1759.77Z" fill="#F7A491"/>
<path d="M412.992 1811.74H537.37C541.97 1811.32 543.091 1807.56 541.496 1805.24C538.212 1800.46 513.954 1788.99 497.644 1781.38C469.036 1784.4 418.755 1772.59 414.24 1765.95C406.396 1787.96 410.435 1811.17 412.992 1811.74Z" fill="#50BFA5"/>
<path d="M564.596 1810.32H688.974C693.574 1809.9 694.696 1806.14 693.1 1803.82C689.816 1799.04 665.558 1787.57 649.248 1779.96C620.64 1782.98 570.359 1771.17 565.845 1764.52C558 1786.54 562.04 1809.75 564.596 1810.32Z" fill="#50BFA5"/>
<path d="M581.262 979.144L544.509 999.703L469.804 1114.26L603.405 1429.62C603.405 1429.62 588.36 1477.04 583.457 1500.74C578.327 1525.53 565.749 1738.31 565.749 1738.31L622.745 1739.27C622.745 1739.27 676.883 1512.75 686.051 1439.23C697.184 1349.95 629.395 1137.32 629.395 1137.32C616.753 1093.94 589.497 1004.7 589.497 1004.7C589.497 1004.7 582.829 982.949 581.262 979.144Z" fill="#B75742"/>
<path d="M460.458 948.759C460.458 948.759 451.845 967.197 436.647 997.933C427.382 1016.67 411.376 1031.36 399.916 1054.32C378.227 1097.75 367.882 1143.32 379.876 1194.99C379.876 1194.99 424.72 1366.72 422.941 1429.49C422.284 1452.63 414.367 1494.33 409.301 1522.52C404.822 1547.44 406.396 1732.33 406.396 1732.33L466.955 1733.5L515.695 1430.26L552.064 1161.41L592.569 1010.61L460.458 948.759Z" fill="#F47458"/>
<path d="M734.029 664.175C763.518 628.599 770.82 583.342 799.368 546.7C809.929 533.146 830.628 517.236 845.916 509.395C913.898 474.534 978.901 526.194 989.922 598.042C995.8 636.368 994.93 684.792 983.85 734.702C973.151 734.764 962.808 734.548 952.798 734.091L947.723 701.667L940.982 733.127C881.961 727.462 820.474 712.042 785.602 695.355L791.924 664.8L773.561 689.285C757.962 681.006 744.86 672.39 734.029 664.175Z" fill="#13375B"/>
<path d="M795.167 749.229C795.167 749.229 923.65 828.158 954.491 840.014C978.619 849.289 1102.44 880.952 1106.94 882.18C1111.44 883.407 1159.14 846.693 1161.79 853.752C1164.44 860.811 1136.42 871.265 1140.82 878.66C1145.22 886.056 1217.78 902.559 1214.86 907.238C1209.38 915.993 1170.07 898.828 1168.28 903.399C1166.5 907.97 1210.95 917.552 1210.74 926.245C1210.53 934.939 1169.48 913.272 1166.42 915.96C1163.36 918.648 1202.32 941.453 1195.26 946.786C1191.43 949.682 1161.1 925.675 1159.18 930.948C1157.26 936.22 1177.62 958.14 1172.87 961.051C1168.13 963.962 1158.27 940.418 1143.78 934.363C1129.3 928.309 1121.91 916.52 1096.09 913.569C1070.28 910.619 978.171 910.783 929.489 888.526C880.809 866.27 777.111 822.849 777.111 822.849L795.167 749.229Z" fill="#F08E76"/>
<path d="M825.465 850.535C825.465 850.535 734.31 812.371 709.921 790.733C685.532 769.095 682.072 720.396 706.296 704.505C730.52 688.614 859.575 781.929 859.575 781.929L825.465 850.535Z" fill="#133742"/>
<path d="M832.671 635.143C832.671 635.143 817.84 625.713 817.166 625.264C816.492 624.814 807.728 635.7 806.829 637.56C805.93 639.42 803.458 656.499 805.481 657.397C807.504 658.296 818.486 663.908 819.511 662.787C820.536 661.667 832.671 635.143 832.671 635.143Z" fill="#F7A491"/>
<path d="M759.635 662.107C759.635 662.107 813.052 654.151 834.383 631.433L853.477 678.593C853.477 678.593 821.032 704.835 818.077 721.655C815.122 738.476 813.094 795.123 813.094 795.123L784.615 779.66C784.615 779.66 751.991 708.22 753.026 699.732C754.06 691.244 759.635 662.107 759.635 662.107Z" fill="#F7A491"/>
<path d="M759.635 662.107C759.635 662.107 699.28 652.416 620.751 709.804C542.222 767.192 442.425 929.97 409.991 1029.06C409.991 1029.06 553.264 1053.44 604.706 1040.09C604.706 1040.09 598.833 985.214 613.344 964.948C627.856 944.682 634.855 904.844 679.622 888.981C698.689 882.225 720.037 881.333 740.204 878.715C776.624 873.988 805.777 846.209 812.132 810.038L812.493 807.983C814.185 798.35 813.059 788.435 809.25 779.427L759.635 662.107Z" fill="#466EB6"/>
<path d="M836.57 694.143C830.061 676.395 830.958 637.374 830.958 637.374L831.734 634.013C832.657 633.173 833.552 632.318 834.382 631.433L853.476 678.593C853.476 678.593 845.163 685.32 836.57 694.143Z" fill="#F47458"/>
<path d="M894.681 533.863C894.681 533.863 866.714 530.625 849.182 553.351C831.651 576.077 812.755 646.355 856.305 684.565C899.855 722.774 942.886 679.523 949.265 633.666C955.646 587.809 958.126 532.208 894.681 533.863Z" fill="#F7A491"/>
<path d="M962.149 632.988C956.951 643.116 948.225 648.724 942.66 645.514C937.095 642.304 936.797 631.491 941.996 621.363C947.194 611.235 955.92 605.627 961.485 608.836C967.049 612.047 967.347 622.86 962.149 632.988Z" fill="#F7A491"/>
<path d="M897.81 526.351C897.81 526.351 860.445 593.183 833.715 596.27C806.984 599.358 803.475 634.871 803.475 634.871C803.475 634.871 813.032 553.042 839.495 537.262C865.957 521.481 897.81 526.351 897.81 526.351Z" fill="#13375B"/>
<path d="M840.724 613.063C842.898 624.931 838.526 635.815 830.958 637.373C823.391 638.931 815.495 630.572 813.321 618.704C811.147 606.836 815.519 595.952 823.086 594.394C830.653 592.837 838.55 601.195 840.724 613.063Z" fill="#F7A491"/>
<path d="M772.273 594.207C789.825 560.404 797.976 572.189 796.897 576.854C795.817 581.519 791.623 627.29 792.821 627.176C794.02 627.061 818.688 615.883 818.688 615.883L819.511 632.393C819.511 632.393 806.729 672.567 813.258 699.251C813.258 699.251 788.081 699.94 763.353 687.746L764.957 666.91L752.16 681.226C745.621 676.743 739.403 671.158 734.03 664.175C734.03 664.175 754.72 628.01 772.273 594.207Z" fill="#13375B"/>
<path d="M1076.8 962.475H0V983.946H1076.8V962.475Z" fill="#EBB960"/>
<path d="M1274.51 1108.54H1074.23C1062.64 1108.54 1053.25 1099.15 1053.25 1087.56V858.86C1053.25 847.273 1062.64 837.88 1074.23 837.88H1274.51C1286.1 837.88 1295.49 847.273 1295.49 858.86V1087.56C1295.49 1099.15 1286.1 1108.54 1274.51 1108.54Z" fill="#B75742"/>
<path d="M1369.5 1108.54H1169.21C1157.62 1108.54 1148.23 1099.15 1148.23 1087.56V858.86C1148.23 847.273 1157.62 837.88 1169.21 837.88H1369.5C1381.08 837.88 1390.48 847.273 1390.48 858.86V1087.56C1390.48 1099.15 1381.08 1108.54 1369.5 1108.54Z" fill="#F47458"/>
<path d="M1271.72 1075.34C1316.18 1075.34 1352.23 1029.62 1352.23 973.21C1352.23 916.804 1316.18 871.078 1271.72 871.078C1227.25 871.078 1191.2 916.804 1191.2 973.21C1191.2 1029.62 1227.25 1075.34 1271.72 1075.34Z" fill="#F7947E"/>
<path d="M1271.71 871.079C1269.02 871.079 1266.36 871.254 1263.73 871.582C1304.45 876.668 1336.26 920.224 1336.26 973.211C1336.26 1026.2 1304.45 1069.75 1263.73 1074.84C1266.36 1075.17 1269.02 1075.34 1271.71 1075.34C1316.18 1075.34 1352.23 1029.62 1352.23 973.212C1352.23 916.804 1316.18 871.079 1271.71 871.079Z" fill="#AB4B37"/>
<path d="M1281.51 918.74C1281.51 924.149 1277.12 928.535 1271.71 928.535C1266.3 928.535 1261.92 924.149 1261.92 918.74C1261.92 913.33 1266.31 908.944 1271.71 908.944C1277.12 908.944 1281.51 913.331 1281.51 918.74Z" fill="#AB4B37"/>
<path d="M1281.51 1027.68C1281.51 1033.09 1277.12 1037.48 1271.71 1037.48C1266.3 1037.48 1261.92 1033.09 1261.92 1027.68C1261.92 1022.27 1266.31 1017.89 1271.71 1017.89C1277.12 1017.89 1281.51 1022.27 1281.51 1027.68Z" fill="#AB4B37"/>
<path d="M1266.82 910.303C1263.9 912 1261.92 915.123 1261.92 918.739C1261.92 922.355 1263.9 925.479 1266.82 927.176C1269.73 925.479 1271.71 922.356 1271.71 918.739C1271.71 915.122 1269.73 912 1266.82 910.303Z" fill="#733021"/>
<path d="M1266.82 1019.24C1263.9 1020.94 1261.92 1024.06 1261.92 1027.68C1261.92 1031.3 1263.9 1034.42 1266.82 1036.12C1269.73 1034.42 1271.71 1031.3 1271.71 1027.68C1271.71 1024.06 1269.73 1020.94 1266.82 1019.24Z" fill="#733021"/>
<path d="M789.311 782.76C789.311 782.76 900.933 887.306 929.168 905.357C951.257 919.478 1067.86 976.111 1072.08 978.247C1076.29 980.378 1131.16 953.596 1132.36 961.149C1133.56 968.702 1103.58 973.392 1106.46 981.636C1109.33 989.88 1178.07 1021.03 1174.21 1025.08C1166.99 1032.67 1131.42 1007.62 1128.71 1011.8C1126.01 1015.98 1168.24 1034.54 1166.26 1043.13C1164.28 1051.73 1127.9 1021.86 1124.31 1023.9C1120.72 1025.95 1154.8 1056.53 1146.7 1060.4C1142.3 1062.49 1117.05 1032.47 1114.07 1037.32C1111.09 1042.17 1126.86 1068.09 1121.56 1070.02C1116.25 1071.95 1111.24 1046.55 1098.08 1037.59C1084.91 1028.63 1079.97 1015.41 1054.92 1007.23C1029.86 999.05 938.309 980.489 894.461 948.477C850.614 916.466 756.402 852.241 756.402 852.241L789.311 782.76Z" fill="#F7A491"/>
<path d="M838.221 815.054L779.525 880.593C779.525 880.593 716.62 836.146 691.57 810.513C636.2 753.855 670.268 676.426 724.542 711.457C764.517 737.258 838.221 815.054 838.221 815.054Z" fill="#184655"/>
</g>
<defs>
<clipPath id="clip0_51_2">
<rect width="2874.89" height="2000" fill="white"/>
</clipPath>
</defs>
</svg>
